<?xml version="1.0" encoding="utf-8"?>
<!-- Generator: Adobe Illustrator 21.0.2, SVG Export Plug-In . SVG Version: 6.00 Build 0)  -->
<svg version="1.1" id="Слой_1" xmlns="http://www.w3.org/2000/svg" xmlns:xlink="http://www.w3.org/1999/xlink" x="0px"
     y="0px"
     viewBox="0 0 500 500" style="enable-background:new 0 0 500 500;" xml:space="preserve">
<style type="text/css">
	.st0{fill:#201605;}
	.st1{fill:none;stroke:#201605;stroke-width:4;stroke-linecap:round;stroke-linejoin:round;stroke-miterlimit:10;}
	.st2{fill:none;stroke:#000000;stroke-width:4;stroke-linecap:round;stroke-linejoin:round;stroke-miterlimit:10;}
	.st3{fill:none;stroke:#80807F;stroke-width:2;stroke-linecap:round;stroke-linejoin:round;stroke-miterlimit:10;}
</style>
    <circle class="st1" cx="299.3" cy="165.4" r="31.9"/>
    <path class="st1" d="M304.3,273.2H196.5c-6.4,0-11.6,5.2-11.6,11.6c0,4.7,2.9,8.8,7,10.6v53.2h124.1v-63.8
	C315.9,278.4,310.7,273.2,304.3,273.2z"/>
    <path class="st1" d="M305.1,262.5c11.7-28.9,30.3-74.8,30.3-74.8c2.1-5.1,7.9-7.5,12.9-5.5l2,0.8c5.1,2.1,7.5,7.9,5.5,12.9
	c0,0-22.5,55.5-33.6,82.8"/>
    <path class="st1" d="M302.8,207.2L302.8,207.2c-6.2-3.1-13.7-0.6-16.8,5.5l-18.1,35.7h-61.6c-6,0-11,4.9-11,11s4.9,11,11,11h70
	c1.1,0,2.2-0.2,3.2-0.5c3.8-0.7,7.2-3,9-6.7l19.8-39.2C311.5,217.9,309,210.3,302.8,207.2z"/>
    <path class="st1" d="M282,205.6c0,0-10.4,9.4-19.9,35.5"/>
    <path class="st1" d="M184.9,281.9c-11.2,2.7-17.6,5-17.6,5c-4.8,1.2-8.1,5.2-8.7,9.8l-14.7,54.9c-1.6,6.1,2,12.4,8.1,14.1
	c6.1,1.6,12.4-2,14.1-8.1l13.4-50c0,0,2.5-0.2,12.7-2.7"/>
    <polyline class="st1" points="202.5,348.6 202.5,366.5 213.1,366.5 228.7,348.6 "/>
    <polyline class="st1" points="310.2,348.6 310.2,366.5 299.7,366.5 284,348.6 "/>
    <path class="st1" d="M195,263.2c-16,0-17.2,0-17.2,0c-1.9,0-3.5-1.6-3.5-3.5s1.6-3.5,3.5-3.5c0,0,6,0,17.2,0"/>
    <path class="st1" d="M156.8,187.7l24.3,70.6c0.6,1.8-0.3,3.8-2.2,4.4h0c-1.8,0.6-3.8-0.3-4.4-2.2L150.2,190
	c-0.6-1.8,0.3-3.8,2.2-4.4l0,0C154.1,184.9,156.1,185.9,156.8,187.7z"/>
</svg>
