<?xml version="1.0" encoding="utf-8"?>
<!-- Generator: Adobe Illustrator 21.0.2, SVG Export Plug-In . SVG Version: 6.00 Build 0)  -->
<svg version="1.1" id="Слой_1" xmlns="http://www.w3.org/2000/svg" xmlns:xlink="http://www.w3.org/1999/xlink" x="0px"
     y="0px"
     viewBox="0 0 500 500" style="enable-background:new 0 0 500 500;" xml:space="preserve">
<style type="text/css">
	.st0{fill:#201605;}
	.st1{fill:none;stroke:#201605;stroke-width:4;stroke-linecap:round;stroke-linejoin:round;stroke-miterlimit:10;}
	.st2{fill:none;stroke:#000000;stroke-width:4;stroke-linecap:round;stroke-linejoin:round;stroke-miterlimit:10;}
	.st3{fill:none;stroke:#80807F;stroke-width:2;stroke-linecap:round;stroke-linejoin:round;stroke-miterlimit:10;}
</style>
    <path class="st0" d="M181.3,335.7c-1.1,0-2-0.9-2-2v-31.6c0-8,4.3-15.8,12-22c7.1-5.7,16.5-9.3,24.9-9.6l0.5,0l10.5-9.5L226,260
	c-10.6-7.8-16.9-20.3-16.9-33.4v-21.7c0-9.3,3.6-18.1,10.2-24.7c6.5-6.6,15.3-10.2,24.6-10.2h13.1c19.3,0,35,15.6,35,34.9v21.7
	c0,13.1-6.4,25.7-17.1,33.5l-1.3,0.9l10.5,9.4l0.5,0c8.5,0.3,17.8,3.9,25,9.6c7.7,6.2,12,14,12,22v31.6c0,1.1-0.9,2-2,2H181.3z
	 M262.4,312.1l4.5,19.5h50.7v-29.6c0-6.7-3.7-13.4-10.5-18.8c-6.1-4.9-14.2-8.2-21.5-8.7l-0.9-0.1l-12.6,28.4
	c-0.2,0.5-0.6,0.9-1.2,1.1c-0.2,0.1-0.4,0.1-0.7,0.1c-0.3,0-0.6-0.1-0.9-0.2l-3.4-1.7L262.4,312.1z M238,331.6h24.7l-4-17.6h-16.5
	L238,331.6z M215.3,274.5c-7.3,0.5-15.4,3.8-21.5,8.7c-6.8,5.4-10.5,12.1-10.5,18.8v29.6h50.5l4.6-19.6l-3.2-10l-3.7,1.8
	c-0.3,0.1-0.6,0.2-0.9,0.2c-0.2,0-0.5,0-0.7-0.1c-0.5-0.2-0.9-0.6-1.2-1.1l-12.6-28.4L215.3,274.5z M238.9,300.2l3.1,9.8h16.8
	l3.3-9.6l-11.8-5.9L238.9,300.2z M253.4,291.4l15.9,7.9l11.7-26.4l-10.3-9.3L253.4,291.4z M220,273l11.7,26.4l15.9-7.9l-17.3-27.7
	L220,273z M250.5,288.4l14.2-22.7l-3.1,0.9c-3.6,1-7.3,1.5-11,1.5c-3.7,0-7.5-0.5-11.1-1.5l-3.1-0.9L250.5,288.4z M213.2,218.6v8
	c0,20.6,16.7,37.4,37.3,37.4c20.7,0,37.5-16.8,37.5-37.4v-7.8l-10.4-15l-1.1,0.9c-7.1,6-15.4,8.8-26.1,8.8c-10.7,0-19-2.8-26-8.8
	l-1.1-0.9L213.2,218.6z M277.9,198.6c0.1,0,0.1,0,0.2,0c0.6,0.1,1.1,0.4,1.5,0.9l8.5,12.2v-6.7c0-17-13.9-30.8-30.9-30.8h-13.1
	c-16.9,0-30.7,13.8-30.7,30.8v6.5l8.2-11.9c0.3-0.5,0.9-0.8,1.5-0.9c0.1,0,0.1,0,0.2,0c0.5,0,1.1,0.2,1.4,0.6
	c6.9,7.1,14.9,10.3,26,10.3c11,0,19-3.2,26-10.2C276.8,198.8,277.3,198.6,277.9,198.6z"/>
    <path class="st1" d="M153.3,151.7c25.3-26.3,60.8-42.7,100.2-42.7c44.2,0,83.5,20.6,109,52.7"/>
    <path class="st1" d="M365.5,334.3c-25.3,34.4-66,56.7-112,56.7c-49,0-92.1-25.3-116.8-63.6"/>
    <path class="st0" d="M381.6,261.5c-5.4-4.3-12.4-7-18.7-7.2l-0.3,0l-7.9-7.1l0.9-0.7c8-5.9,12.8-15.3,12.8-25.1v-16.3
	c0-14.4-11.8-26.2-26.3-26.2h-9.9c-7,0-13.5,2.7-18.5,7.7c-4.9,4.9-7.6,11.5-7.6,18.5v16.3c0,9.9,4.7,19.2,12.7,25.1l0.9,0.7
	l-7.9,7.1l-0.3,0c-4.6,0.2-9.5,1.6-13.9,4c0.8,0.7,1.6,1.4,2.4,2.2c3.5-1.8,7.2-2.9,10.8-3.1l0.7,0l9.5,21.3
	c0.2,0.4,0.5,0.7,0.9,0.8c0.2,0.1,0.3,0.1,0.5,0.1c0.2,0,0.5-0.1,0.7-0.2l2.7-1.4l2.4,7.5l-3.4,14.7h-0.4c0.1,1,0.3,2,0.3,3h64.4
	c0.8,0,1.5-0.7,1.5-1.5V278C390.6,272,387.4,266.2,381.6,261.5z M360.1,256.1l-8.8,19.8l-11.9-6l13-20.8L360.1,256.1z M337.2,272.3
	l8.8,4.4l-2.5,7.2h-12.6l-2.4-7.3L337.2,272.3z M337.2,267.7l-10.7-17.1l2.3,0.7c2.7,0.8,5.5,1.1,8.3,1.1c2.8,0,5.6-0.4,8.3-1.1
	l2.3-0.6L337.2,267.7z M309.3,205.1c0-12.8,10.3-23.1,23.1-23.1h9.9c12.8,0,23.2,10.4,23.2,23.1v5.1L359,201
	c-0.3-0.4-0.7-0.6-1.1-0.6c0,0-0.1,0-0.1,0c-0.4,0-0.8,0.2-1.1,0.5c-5.2,5.3-11.2,7.7-19.5,7.7c-8.3,0-14.3-2.4-19.5-7.7
	c-0.3-0.3-0.7-0.5-1.1-0.5c0,0-0.1,0-0.1,0c-0.5,0-0.9,0.3-1.1,0.7l-6.1,9V205.1z M309.3,221.3v-6l7.6-11.1l0.8,0.7
	c5.3,4.5,11.5,6.6,19.6,6.6c8,0,14.2-2.1,19.6-6.6l0.8-0.7l7.8,11.3v5.9c0,15.5-12.6,28.1-28.2,28.1
	C321.8,249.4,309.3,236.8,309.3,221.3z M323.1,275.9l-8.8-19.8l7.7-6.9l13,20.8L323.1,275.9z M327.9,300.2L331,287h12.4l3,13.2
	H327.9z M387.6,300.2h-38.1l-3.3-14.7l2.6-7.5l2.6,1.3c0.2,0.1,0.4,0.2,0.7,0.2c0.2,0,0.3,0,0.5-0.1c0.4-0.1,0.7-0.4,0.9-0.8
	l9.5-21.3l0.7,0c5.5,0.4,11.5,2.9,16.1,6.6c5.1,4.1,7.9,9.1,7.9,14.1V300.2z"/>
    <path class="st0" d="M109.4,278v23.7c0,0.8,0.7,1.5,1.5,1.5h64.4c0.1-1,0.2-2,0.3-3h-0.4l-3.4-14.7l2.4-7.5l2.7,1.4
	c0.2,0.1,0.4,0.2,0.7,0.2c0.2,0,0.3,0,0.5-0.1c0.4-0.1,0.7-0.4,0.9-0.8l9.5-21.3l0.7,0c3.5,0.3,7.3,1.4,10.8,3.1
	c0.8-0.8,1.6-1.5,2.4-2.2c-4.4-2.4-9.3-3.9-13.9-4l-0.3,0l-7.9-7.1l0.9-0.7c7.9-5.8,12.7-15.2,12.7-25.1v-16.3
	c0-7-2.7-13.6-7.6-18.5c-4.9-4.9-11.5-7.7-18.5-7.7h-9.9c-14.5,0-26.3,11.7-26.3,26.2v16.3c0,9.9,4.8,19.3,12.8,25.1l0.9,0.7
	l-7.9,7.1l-0.3,0c-6.4,0.2-13.4,3-18.7,7.2C112.6,266.2,109.4,272,109.4,278z M147.6,249.2l13,20.8l-11.9,6l-8.8-19.8L147.6,249.2z
	 M171.4,276.6l-2.4,7.3h-12.6l-2.5-7.2l8.8-4.4L171.4,276.6z M152.1,250.7l2.3,0.6c2.7,0.7,5.5,1.1,8.3,1.1c2.8,0,5.6-0.4,8.3-1.1
	l2.3-0.7l-10.7,17.1L152.1,250.7z M190.7,210l-6.1-9c-0.3-0.4-0.7-0.6-1.1-0.7c0,0-0.1,0-0.1,0c-0.4,0-0.8,0.2-1.1,0.5
	c-5.2,5.3-11.2,7.7-19.5,7.7c-8.3,0-14.3-2.4-19.5-7.7c-0.3-0.3-0.7-0.5-1.1-0.5c0,0-0.1,0-0.1,0c-0.5,0-0.9,0.3-1.1,0.6l-6.4,9.2
	v-5.1c0-12.8,10.4-23.1,23.2-23.1h9.9c12.7,0,23.1,10.4,23.1,23.1V210z M162.8,249.4c-15.5,0-28.2-12.6-28.2-28.1v-5.9l7.8-11.3
	l0.8,0.7c5.3,4.5,11.5,6.6,19.6,6.6c8,0,14.2-2.1,19.6-6.6l0.8-0.7l7.6,11.1v6C190.7,236.8,178.2,249.4,162.8,249.4z M165,270
	l13-20.8l7.7,6.9l-8.8,19.8L165,270z M153.6,300.2l3-13.2H169l3.1,13.2H153.6z M112.4,278c0-5,2.8-10,7.9-14.1
	c4.6-3.7,10.6-6.2,16.1-6.6l0.7,0l9.5,21.3c0.2,0.4,0.5,0.7,0.9,0.8c0.2,0.1,0.3,0.1,0.5,0.1c0.2,0,0.5-0.1,0.7-0.2l2.6-1.3l2.6,7.5
	l-3.3,14.7h-38.1V278z"/>
</svg>
