<?xml version="1.0" encoding="utf-8"?>
<!-- Generator: Adobe Illustrator 21.0.2, SVG Export Plug-In . SVG Version: 6.00 Build 0)  -->
<svg version="1.1" id="Слой_1" xmlns="http://www.w3.org/2000/svg" xmlns:xlink="http://www.w3.org/1999/xlink" x="0px"
     y="0px"
     viewBox="0 0 500 500" style="enable-background:new 0 0 500 500;" xml:space="preserve">
<style type="text/css">
	.st0{fill:#201605;}
	.st1{fill:none;stroke:#201605;stroke-width:4;stroke-linecap:round;stroke-linejoin:round;stroke-miterlimit:10;}
	.st2{fill:none;stroke:#000000;stroke-width:4;stroke-linecap:round;stroke-linejoin:round;stroke-miterlimit:10;}
	.st3{fill:none;stroke:#80807F;stroke-width:2;stroke-linecap:round;stroke-linejoin:round;stroke-miterlimit:10;}
</style>
    <path d="M260.9,345.7c-22.3,0-31.5-2.4-48.2-6.8l-0.1,0c-2.1-0.6-4.4-1.1-6.8-1.8l-2-0.5l-0.8,1.9c-1.9,4.3-6.3,7.2-11,7.2h-48.3
	c-1.3,0-2.4-1.1-2.4-2.4v-116c0-1.3,1.1-2.4,2.4-2.4H192c4.8,0,9.1,2.8,11,7.2l0.8,1.9l2-0.5c12.8-3.2,31.2-9.1,46.3-19.2
	c16.2-10.8,24.4-23.7,24.4-38.3v-4.8c0-9.3,7.6-16.9,16.9-16.9c9.1,0,16.6,7.4,16.9,16.5l0,0.1l0,0.1c0.1,1,0.2,2.7,0.3,5.3
	c0.5,15.7-2.2,32.2-7.2,45.2l-1.3,3.4h39.7c9.3,0,16.9,7.6,16.9,16.9c0,7.2-4.5,13.6-11.3,15.9l-3,1.1l1.8,2.6
	c1.9,2.8,2.9,6,2.9,9.4c0,7.2-4.5,13.6-11.3,15.9l-3,1.1l1.8,2.6c1.8,2.8,2.8,6,2.8,9.4c0,7.2-4.5,13.6-11.3,15.9l-3,1.1l1.8,2.6
	c1.9,2.8,2.9,6,2.9,9.4c0,9.3-7.6,16.9-16.9,16.9H260.9z M293.5,159.1c-6.7,0-12.1,5.4-12.1,12.1v4.8c0,15.5-8.2,29.2-24.5,40.8
	c-12.9,9.2-31,16.8-50.9,21.6l-1.9,0.5v92.9l1.9,0.5c2.9,0.7,5.6,1.5,8,2.1c16.8,4.4,25.3,6.6,47,6.6h52c6.7,0,12.1-5.4,12.1-12.1
	c0-6.7-5.4-12.1-12.1-12.1h-14.5c-1.3,0-2.4-1.1-2.4-2.4c0-1.3,1.1-2.4,2.4-2.4h24.2c6.7,0,12.1-5.4,12.1-12.1
	c0-6.7-5.4-12.1-12.1-12.1H308c-1.3,0-2.4-1.1-2.4-2.4c0-1.3,1.1-2.4,2.4-2.4h24.2c6.7,0,12.1-5.4,12.1-12.1
	c0-6.7-5.4-12.1-12.1-12.1h-14.5c-1.3,0-2.4-1.1-2.4-2.4c0-1.3,1.1-2.4,2.4-2.4h24.2c6.7,0,12.1-5.4,12.1-12.1
	c0-6.7-5.4-12.1-12.1-12.1H279c-1.3,0-2.4-1.1-2.4-2.4c0-1.3,1.1-2.4,2.4-2.4h17.9l0.7-1.5c4.5-9.9,9.5-26.9,8.2-51.3
	c0-0.5,0-0.9,0-1C305.6,164.5,300.2,159.1,293.5,159.1z M146,340.9h46c4,0,7.3-3.3,7.3-7.3v-96.7c0-4-3.3-7.3-7.3-7.3h-46V340.9z"/>
</svg>
